HIERARCHY
ROOT Hips
{
	OFFSET 0.000000 0.000000 0.000000 
	CHANNELS 6 Xposition Yposition Zposition Zrotation Yrotation Xrotation
	JOINT LeftUpLeg
	{
		OFFSET 1.363060 -1.794630 0.839290 
		CHANNELS 3 Zrotation Yrotation Xrotation
		JOINT LeftLeg
		{
			OFFSET 2.448110 -6.726130 0.000000 
			CHANNELS 3 Zrotation Yrotation Xrotation
			JOINT LeftFoot
			{
				OFFSET 2.562200 -7.039590 0.000000 
				CHANNELS 3 Zrotation Yrotation Xrotation
				JOINT LeftToeBase
				{
					OFFSET 0.157640 -0.433110 2.322550 
					CHANNELS 3 Zrotation Yrotation Xrotation
					End Site
					{
						OFFSET 0.000000 0.000000 0.000000 
					}
				}
			}
		}
	}
	JOINT RightUpLeg
	{
		OFFSET -1.305520 -1.794630 0.839290 
		CHANNELS 3 Zrotation Yrotation Xrotation
		JOINT RightLeg
		{
			OFFSET -2.542530 -6.985550 0.000000 
			CHANNELS 3 Zrotation Yrotation Xrotation
			JOINT RightFoot
			{
				OFFSET -2.568260 -7.056230 0.000000 
				CHANNELS 3 Zrotation Yrotation Xrotation
				JOINT RightToeBase
				{
					OFFSET -0.164730 -0.452590 2.363150 
					CHANNELS 3 Zrotation Yrotation Xrotation
					End Site
					{
						OFFSET 0.000000 0.000000 0.000000 
					}
				}
			}
		}
	}
	JOINT Spine
	{
		OFFSET 0.028270 2.035590 -0.193380 
		CHANNELS 3 Zrotation Yrotation Xrotation
		JOINT Spine1
		{
			OFFSET 0.056720 2.048850 -0.042750 
			CHANNELS 3 Zrotation Yrotation Xrotation
			JOINT Neck1
			{
				OFFSET -0.054170 1.746240 0.172020 
				CHANNELS 3 Zrotation Yrotation Xrotation
				JOINT Head
				{
					OFFSET 0.104070 1.761360 -0.123970 
					CHANNELS 3 Zrotation Yrotation Xrotation
					End Site
					{
						OFFSET 0.000000 0.000000 0.000000 
					}
				}
			}
			JOINT LeftArm
			{
				OFFSET 3.362410 1.200890 -0.311210 
				CHANNELS 3 Zrotation Yrotation Xrotation
				JOINT LeftForeArm
				{
					OFFSET 4.983000 -0.000000 -0.000000 
					CHANNELS 3 Zrotation Yrotation Xrotation
					JOINT LeftHand
					{
						OFFSET 3.483560 -0.000000 -0.000000 
						CHANNELS 3 Zrotation Yrotation Xrotation
						JOINT LeftHandIndex1
						{
							OFFSET 0.715260 -0.000000 -0.000000 
							CHANNELS 3 Zrotation Yrotation Xrotation
							End Site
							{
								OFFSET 0.000000 0.000000 0.000000 
							}
						}
					}
				}
			}
			JOINT RightArm
			{
				OFFSET -3.136600 1.374050 -0.404650 
				CHANNELS 3 Zrotation Yrotation Xrotation
				JOINT RightForeArm
				{
					OFFSET -5.241900 -0.000000 -0.000000 
					CHANNELS 3 Zrotation Yrotation Xrotation
					JOINT RightHand
					{
						OFFSET -3.444170 -0.000000 -0.000000 
						CHANNELS 3 Zrotation Yrotation Xrotation
						JOINT RightHandIndex1
						{
							OFFSET -0.622530 -0.000000 -0.000000 
							CHANNELS 3 Zrotation Yrotation Xrotation
							End Site
							{
								OFFSET 0.000000 0.000000 0.000000 
							}
						}
					}
				}
			}
		}
	}
}
MOTION
Frames: 7
Frame Time: 0.041667
-3.442244 17.425030 2.341109 -133.850200 -75.338283 142.855348 -19.659548 -21.869000 -12.505448 -11.433035 5.446228 8.210557 -1.961952 14.560524 -16.862859 10.039200 -17.431800 -59.619200 40.066701 -3.063122 3.102585 7.005438 -11.691387 32.852104 -1.008761 0.011305 -15.605942 -0.731000 5.462500 -15.232400 1.159034 2.865130 -3.978592 -0.146990 1.224223 -13.951177 0.236873 4.047953 30.254145 -2.179600 -0.122000 24.913100 -89.349728 4.435127 26.038515 11.059584 -24.882658 -3.881477 0.334328 2.928292 8.476749 -7.125000 0.000000 0.000000 70.770396 -3.914312 66.938453 -18.315136 31.056307 -3.996228 0.930770 -2.733036 -14.346515 7.125000 0.000000 0.000000 
-3.585871 17.425574 2.382456 -135.796349 -75.425833 144.610645 -20.601716 -21.531685 -11.786189 -11.519599 5.362279 8.312443 -1.777110 14.166970 -17.333830 9.978200 -17.397600 -59.415300 38.971471 -3.027175 1.656508 6.087497 -12.581799 35.618823 -0.796453 -0.891841 -14.107708 -0.954900 6.222700 -17.431900 1.189469 2.823510 -4.026809 0.192733 1.272833 -14.225607 -0.038596 3.797231 30.094188 -2.528200 -0.106800 24.384200 -89.039755 4.572977 28.727903 11.913944 -25.808473 -4.061131 0.231677 2.918955 7.164537 -7.125000 0.000000 0.000000 70.644526 -3.365179 66.302697 -18.654670 31.439614 -4.166712 0.762785 -2.759713 -13.760095 7.125000 0.000000 0.000000 
-3.734502 17.413387 2.419560 -138.453494 -75.634890 147.059081 -21.874692 -21.077832 -11.024082 -11.627820 5.294817 8.435904 -1.424366 13.155381 -17.976433 9.763500 -17.274700 -58.694900 37.719546 -2.917140 0.367273 5.305859 -13.286191 37.905665 -0.854886 -2.340363 -14.872182 -0.903300 6.056900 -16.949600 1.150769 2.674063 -3.967150 0.359688 1.237975 -14.029864 0.316872 4.068666 30.148100 -2.117800 -0.113600 24.647100 -88.606999 3.893927 31.076770 12.702856 -26.555450 -4.213669 0.156072 2.888513 6.189617 -7.125000 0.000000 0.000000 70.265124 -1.894192 66.075470 -19.289365 32.126205 -4.420377 0.771095 -2.769877 -14.394327 7.125000 0.000000 0.000000 
-3.875082 17.391952 2.454596 -140.486782 -75.793699 148.871087 -22.976823 -20.510764 -10.432029 -11.698161 5.314858 8.719598 -1.157238 12.352634 -18.323344 9.648400 -17.207300 -58.306500 36.807575 -2.683111 -0.795434 4.742925 -13.895024 39.719835 -0.985023 -4.877118 -16.907824 -1.135800 6.768300 -19.030800 1.141186 2.587158 -3.976162 0.534273 1.238421 -14.046610 0.328246 4.032258 30.216256 -2.177900 -0.092800 24.716300 -87.971895 3.577250 33.816568 13.510804 -27.321911 -4.377881 0.102428 2.844863 5.281002 -7.125000 0.000000 0.000000 70.180430 -0.944899 65.427144 -19.860662 32.752681 -4.636999 0.779059 -2.761562 -14.649145 7.125000 0.000000 0.000000 
-4.006195 17.368994 2.488217 -142.377411 -76.056757 150.527574 -24.145314 -20.106203 -9.884128 -11.787491 5.384355 9.048356 -0.999123 12.112979 -18.668217 9.717200 -17.247700 -58.538900 35.961789 -2.359936 -1.725837 4.383682 -14.306843 40.879877 -1.240587 -7.161368 -20.185534 -1.114000 6.705400 -18.845500 1.103564 2.414838 -3.930524 0.547761 1.165762 -13.900153 0.467359 4.244176 30.253399 -2.017200 -0.061200 24.913000 -87.354927 2.640553 36.113331 14.109125 -27.842704 -4.509472 0.080704 2.807165 4.684576 -7.125000 0.000000 0.000000 70.086965 0.339337 64.636301 -20.362280 33.317902 -4.833136 0.723206 -2.747627 -14.898542 7.125000 0.000000 0.000000 
-4.134153 17.346470 2.514767 -145.002491 -76.415592 152.907244 -25.525876 -19.763678 -9.309989 -11.898037 5.449575 9.328151 -0.779800 11.682235 -19.155692 9.763800 -17.274900 -58.696100 34.989380 -1.856906 -2.540777 4.208254 -14.516468 41.381868 -1.558082 -8.880195 -23.668441 -0.702700 5.358100 -14.932700 1.080966 2.277033 -3.963334 0.762423 1.162366 -14.054003 0.295384 3.998642 30.163115 -2.255800 -0.077300 24.571200 -86.773303 2.066756 38.270444 14.695512 -28.372861 -4.636552 0.070224 2.768629 4.378192 -7.125000 0.000000 0.000000 70.279209 0.893459 63.415428 -20.950913 34.006117 -5.095435 0.700680 -2.752813 -15.182011 7.125000 0.000000 0.000000 
-4.259174 17.324600 2.533590 -147.129776 -76.645897 154.786521 -26.680435 -19.367422 -8.753611 -11.968117 5.520299 9.648849 -0.560575 11.124477 -19.603361 9.730100 -17.255300 -58.582600 34.358607 -1.182042 -3.144488 4.285598 -14.562129 41.192294 -1.916761 -10.042620 -26.797130 -0.348000 3.790100 -10.486900 1.069796 2.190175 -4.004831 0.969146 1.179709 -14.227231 0.207203 3.735639 30.107302 -2.430700 -0.097400 24.247300 -86.178586 1.443574 40.147477 15.205827 -28.816172 -4.742596 0.024437 2.737685 4.303045 -7.125000 0.000000 0.000000 70.654967 1.281598 62.124811 -21.601015 34.781927 -5.407441 0.701025 -2.775970 -15.710983 7.125000 0.000000 0.000000 
